<svg width="375" height="248" viewBox="0 0 375 248" fill="none" xmlns="http://www.w3.org/2000/svg">
<g filter="url(#filter0_d_3391_5195)">
<path d="M275 161.773C275 170.474 278.84 178.819 285.676 184.971C292.512 191.124 301.783 194.58 311.451 194.58H402.578C409.689 194.587 416.576 192.348 422.042 188.255C427.507 184.161 431.204 178.471 432.487 172.176C433.771 165.882 432.561 159.381 429.067 153.808C425.573 148.234 420.017 143.94 413.367 141.673C414.871 137.826 415.148 133.676 414.169 129.694C413.191 125.712 410.994 122.055 407.828 119.138C404.662 116.22 400.652 114.157 396.252 113.182C391.852 112.207 387.236 112.358 382.927 113.62C380.14 103.997 373.3 95.7277 363.857 90.564C354.414 85.4004 343.109 83.7474 332.335 85.9553C321.561 88.1632 312.165 94.0585 306.137 102.393C300.109 110.727 297.921 120.846 300.038 130.607C292.751 132.769 286.408 136.945 281.912 142.541C277.417 148.137 274.998 154.867 275 161.773Z" fill="#FCFCFC"/>
</g>
<g filter="url(#filter1_d_3391_5195)">
<path d="M168 177.393C168 183.898 170.593 190.136 175.207 194.736C179.822 199.335 186.081 201.919 192.607 201.919H254.126C258.926 201.924 263.576 200.251 267.266 197.19C270.955 194.13 273.451 189.876 274.317 185.171C275.184 180.465 274.367 175.606 272.008 171.439C269.649 167.272 265.899 164.062 261.41 162.367C262.424 159.491 262.612 156.389 261.951 153.412C261.29 150.435 259.807 147.702 257.67 145.52C255.533 143.339 252.826 141.797 249.855 141.068C246.885 140.339 243.769 140.452 240.86 141.395C238.978 134.201 234.361 128.02 227.986 124.16C221.611 120.299 213.979 119.064 206.706 120.714C199.433 122.365 193.09 126.772 189.02 133.002C184.95 139.233 183.474 146.797 184.903 154.094C179.983 155.711 175.701 158.833 172.666 163.016C169.632 167.2 167.999 172.231 168 177.393Z" fill="#FCFCFC"/>
</g>
<g filter="url(#filter2_d_3391_5195)">
<path d="M69 183.686C69 192.831 72.6464 201.601 79.137 208.067C85.6276 214.533 94.4308 218.165 103.61 218.165H190.135C196.886 218.173 203.426 215.82 208.616 211.518C213.805 207.215 217.315 201.235 218.534 194.62C219.752 188.005 218.603 181.173 215.286 175.315C211.968 169.457 206.693 164.944 200.379 162.562C201.806 158.518 202.07 154.158 201.141 149.972C200.211 145.787 198.126 141.944 195.119 138.878C192.113 135.811 188.306 133.643 184.128 132.618C179.95 131.593 175.568 131.753 171.476 133.079C168.83 122.965 162.336 114.275 153.369 108.848C144.403 103.421 133.669 101.684 123.439 104.004C113.21 106.324 104.288 112.52 98.5644 121.279C92.8405 130.038 90.7635 140.673 92.7732 150.931C85.8544 153.204 79.8318 157.593 75.5633 163.474C71.2947 169.356 68.9979 176.429 69 183.686Z" fill="#FCFCFC"/>
</g>
<g filter="url(#filter3_d_3391_5195)">
<path d="M-58 184.445C-58 197.983 -52.6015 210.965 -42.9922 220.537C-33.3829 230.11 -20.3498 235.487 -6.76015 235.487H121.339C131.335 235.498 141.017 232.015 148.7 225.646C156.383 219.277 161.579 210.425 163.384 200.631C165.188 190.838 163.487 180.725 158.575 172.053C153.664 163.381 145.854 156.7 136.506 153.174C138.619 147.188 139.01 140.732 137.634 134.536C136.258 128.341 133.17 122.652 128.719 118.112C124.269 113.572 118.632 110.363 112.447 108.846C106.261 107.329 99.7733 107.565 93.7155 109.528C89.7974 94.5555 80.1831 81.6905 66.9086 73.6567C53.6341 65.6229 37.7418 63.0512 22.597 66.4863C7.45226 69.9213 -5.75573 79.0934 -14.23 92.0601C-22.7042 105.027 -25.7792 120.77 -22.8039 135.956C-33.0471 139.32 -41.9635 145.818 -48.2831 154.524C-54.6026 163.231 -58.0031 173.702 -58 184.445Z" fill="#FCFCFC"/>
</g>
<g filter="url(#filter4_d_3391_5195)">
<path d="M233.238 195.222C233.238 203.754 236.529 211.936 242.386 217.969C248.244 224.002 256.189 227.392 264.473 227.392H342.56C348.653 227.398 354.555 225.203 359.239 221.189C363.922 217.175 367.089 211.595 368.189 205.423C369.289 199.251 368.252 192.877 365.258 187.411C362.264 181.945 357.504 177.735 351.805 175.512C353.093 171.739 353.331 167.671 352.493 163.766C351.654 159.861 349.772 156.275 347.058 153.414C344.345 150.553 340.91 148.53 337.139 147.574C333.369 146.618 329.414 146.767 325.721 148.004C323.332 138.567 317.472 130.459 309.38 125.395C301.288 120.332 291.6 118.711 282.368 120.876C273.136 123.041 265.085 128.822 259.919 136.994C254.754 145.167 252.879 155.089 254.693 164.66C248.449 166.781 243.013 170.876 239.161 176.363C235.309 181.851 233.236 188.45 233.238 195.222Z" fill="#FCFCFC"/>
</g>
<path d="M442.99 170.423C452.78 160.906 448.607 144.361 435.475 140.624L431.313 139.439C424.286 137.44 416.956 141.455 414.858 148.452C412.046 157.832 400.431 161.1 393.141 154.562L374.104 137.492C367.349 131.435 357.156 139.032 361.032 147.236C363.904 153.318 358.745 160.116 352.115 158.987L260.48 143.375C253.376 142.165 246.18 144.942 241.73 150.61L230.457 164.969C225.079 171.819 214.187 169.571 211.959 161.152C210.347 155.06 203.788 151.73 197.919 154.024L160.017 168.841C147.883 173.584 134.144 168.178 128.495 156.438L126.732 152.772C119.596 137.94 99.4216 135.644 89.1361 148.494L88.4731 149.322C81.4338 158.116 68.7522 159.882 59.578 153.346L54.1789 149.499C43.4903 141.884 28.5475 148.482 26.9743 161.512C25.7034 172.037 15.348 178.952 5.13919 176.092L-62.2466 157.213C-72.9772 154.207 -82.3961 164.991 -77.9733 175.22C-77.3925 176.563 -76.5928 177.801 -75.6069 178.883L-17.1838 243H382C398.227 243 412.853 233.216 419.047 218.218L434.317 181.246C435.406 178.609 437.023 176.223 439.069 174.235L442.99 170.423Z" fill="#FCFCFC"/>
<defs>
<filter id="filter0_d_3391_5195" x="208.507" y="20.901" width="290.972" height="242.565" filterUnits="userSpaceOnUse" color-interpolation-filters="sRGB">
<feFlood flood-opacity="0" result="BackgroundImageFix"/>
<feColorMatrix in="SourceAlpha" type="matrix" values="0 0 0 0 0 0 0 0 0 0 0 0 0 0 0 0 0 0 127 0" result="hardAlpha"/>
<feOffset dy="2.39374"/>
<feGaussianBlur stdDeviation="33.2463"/>
<feComposite in2="hardAlpha" operator="out"/>
<feColorMatrix type="matrix" values="0 0 0 0 0 0 0 0 0 0 0 0 0 0 0 0 0 0 0.06 0"/>
<feBlend mode="normal" in2="BackgroundImageFix" result="effect1_dropShadow_3391_5195"/>
<feBlend mode="normal" in="SourceGraphic" in2="effect1_dropShadow_3391_5195" result="shape"/>
</filter>
<filter id="filter1_d_3391_5195" x="101.507" y="55.901" width="239.64" height="214.905" filterUnits="userSpaceOnUse" color-interpolation-filters="sRGB">
<feFlood flood-opacity="0" result="BackgroundImageFix"/>
<feColorMatrix in="SourceAlpha" type="matrix" values="0 0 0 0 0 0 0 0 0 0 0 0 0 0 0 0 0 0 127 0" result="hardAlpha"/>
<feOffset dy="2.39374"/>
<feGaussianBlur stdDeviation="33.2463"/>
<feComposite in2="hardAlpha" operator="out"/>
<feColorMatrix type="matrix" values="0 0 0 0 0 0 0 0 0 0 0 0 0 0 0 0 0 0 0.06 0"/>
<feBlend mode="normal" in2="BackgroundImageFix" result="effect1_dropShadow_3391_5195"/>
<feBlend mode="normal" in="SourceGraphic" in2="effect1_dropShadow_3391_5195" result="shape"/>
</filter>
<filter id="filter2_d_3391_5195" x="2.50731" y="38.901" width="282.993" height="248.151" filterUnits="userSpaceOnUse" color-interpolation-filters="sRGB">
<feFlood flood-opacity="0" result="BackgroundImageFix"/>
<feColorMatrix in="SourceAlpha" type="matrix" values="0 0 0 0 0 0 0 0 0 0 0 0 0 0 0 0 0 0 127 0" result="hardAlpha"/>
<feOffset dy="2.39374"/>
<feGaussianBlur stdDeviation="33.2463"/>
<feComposite in2="hardAlpha" operator="out"/>
<feColorMatrix type="matrix" values="0 0 0 0 0 0 0 0 0 0 0 0 0 0 0 0 0 0 0.06 0"/>
<feBlend mode="normal" in2="BackgroundImageFix" result="effect1_dropShadow_3391_5195"/>
<feBlend mode="normal" in="SourceGraphic" in2="effect1_dropShadow_3391_5195" result="shape"/>
</filter>
<filter id="filter3_d_3391_5195" x="-124.493" y="0.901046" width="355.071" height="303.472" filterUnits="userSpaceOnUse" color-interpolation-filters="sRGB">
<feFlood flood-opacity="0" result="BackgroundImageFix"/>
<feColorMatrix in="SourceAlpha" type="matrix" values="0 0 0 0 0 0 0 0 0 0 0 0 0 0 0 0 0 0 127 0" result="hardAlpha"/>
<feOffset dy="2.39374"/>
<feGaussianBlur stdDeviation="33.2463"/>
<feComposite in2="hardAlpha" operator="out"/>
<feColorMatrix type="matrix" values="0 0 0 0 0 0 0 0 0 0 0 0 0 0 0 0 0 0 0.06 0"/>
<feBlend mode="normal" in2="BackgroundImageFix" result="effect1_dropShadow_3391_5195"/>
<feBlend mode="normal" in="SourceGraphic" in2="effect1_dropShadow_3391_5195" result="shape"/>
</filter>
<filter id="filter4_d_3391_5195" x="166.745" y="55.8405" width="268.365" height="240.439" filterUnits="userSpaceOnUse" color-interpolation-filters="sRGB">
<feFlood flood-opacity="0" result="BackgroundImageFix"/>
<feColorMatrix in="SourceAlpha" type="matrix" values="0 0 0 0 0 0 0 0 0 0 0 0 0 0 0 0 0 0 127 0" result="hardAlpha"/>
<feOffset dy="2.39374"/>
<feGaussianBlur stdDeviation="33.2463"/>
<feComposite in2="hardAlpha" operator="out"/>
<feColorMatrix type="matrix" values="0 0 0 0 0 0 0 0 0 0 0 0 0 0 0 0 0 0 0.06 0"/>
<feBlend mode="normal" in2="BackgroundImageFix" result="effect1_dropShadow_3391_5195"/>
<feBlend mode="normal" in="SourceGraphic" in2="effect1_dropShadow_3391_5195" result="shape"/>
</filter>
</defs>
</svg>
